{"accessors" : [{"bufferView" : 0, "byteOffset" : 0, "componentType" : 5123, "count" : 1314, "type" : "SCALAR", "max" : [1313], "min" : [0]}, {"bufferView" : 1, "byteOffset" : 0, "componentType" : 5126, "count" : 1314, "type" : "VEC3", "max" : [1.3257546424865723, 1.3530466556549072, 6.055605888366699], "min" : [-1.6039453744888306, -1.7802352905273438, 1.6231797933578491], "name" : "POSITION"}, {"bufferView" : 1, "byteOffset" : 12, "componentType" : 5126, "count" : 1314, "type" : "VEC3", "max" : [0.9515765309333801, 0.9999252557754517, 0.9937270879745483], "min" : [-0.9999906420707703, -0.9970012903213501, -0.9914052486419678], "name" : "NORMAL"}, {"bufferView" : 1, "byteOffset" : 24, "componentType" : 5126, "count" : 1314, "type" : "VEC2", "max" : [0.8539203405380249, -0], "min" : [0.01905176043510437, -0.8538135290145874], "name" : "TEXCOORD_0"}, {"bufferView" : 0, "byteOffset" : 2628, "componentType" : 5123, "count" : 504, "type" : "SCALAR", "max" : [503], "min" : [0]}, {"bufferView" : 2, "byteOffset" : 0, "componentType" : 5126, "count" : 504, "type" : "VEC3", "max" : [0.3969355821609497, 0.6364202499389648, 5.929934501647949], "min" : [-0.8306718468666077, -0.6556158065795898, 0], "name" : "POSITION"}, {"bufferView" : 2, "byteOffset" : 12, "componentType" : 5126, "count" : 504, "type" : "VEC3", "max" : [0.8887367248535156, 0.999451220035553, 0.9999961256980896], "min" : [-0.8986407518386841, -0.998451292514801, -0.9999460577964783], "name" : "NORMAL"}, {"bufferView" : 2, "byteOffset" : 24, "componentType" : 5126, "count" : 504, "type" : "VEC2", "max" : [0.8105738759040833, -0], "min" : [0, -1], "name" : "TEXCOORD_0"}], "asset" : {"generator" : "Aspose.3D 21.11", "version" : "2.0"}, "buffers" : [{"uri" : "data:application/octet-stream;base64,", "byteLength" : 61824}], "bufferViews" : [{"buffer" : 0, "byteOffset" : 0, "byteLength" : 3636, "target" : 34963}, {"buffer" : 0, "byteOffset" : 3640, "byteLength" : 42048, "byteStride" : 32, "target" : 34962}, {"buffer" : 0, "byteOffset" : 45692, "byteLength" : 16128, "byteStride" : 32, "target" : 34962}], "materials" : [{"name" : "", "pbrMetallicRoughness" : {"baseColorFactor" : [0.03122049570083618, 0.11492978036403656, 0.0809759870171547, 1], "metallicFactor" : 0, "roughnessFactor" : 0}, "emissiveFactor" : [0.02832523174583912, 0.1733514964580536, 0.053070180118083954], "alphaMode" : "OPAQUE", "doubleSided" : false}, {"name" : "", "pbrMetallicRoughness" : {"baseColorFactor" : [0.8000000715255737, 0.48327258229255676, 0.38525429368019104, 1], "metallicFactor" : 0, "roughnessFactor" : 0}, "emissiveFactor" : [0, 0, 0], "alphaMode" : "OPAQUE", "doubleSided" : false}], "meshes" : [{"primitives" : [{"attributes" : {"POSITION" : 1, "NORMAL" : 2, "TEXCOORD_0" : 3}, "indices" : 0, "material" : 0, "mode" : 4}, {"attributes" : {"POSITION" : 5, "NORMAL" : 6, "TEXCOORD_0" : 7}, "indices" : 4, "material" : 1, "mode" : 4}], "name" : "tree.005"}], "nodes" : [{"matrix" : [100, 0, 0, 0, 0, -1.6292067961387602E-05, -99.99999999999868, 0, 0, 99.99999999999868, -1.6292067961387602E-05, 0, 0, 0, 1558.1400146484375, 1], "mesh" : 0, "name" : "EL-new"}], "scene" : 0, "scenes" : [{"nodes" : [0]}]}