{
    "asset" : {
        "generator" : "Khronos glTF Blender I/O v1.7.33",
        "version" : "2.0"
    },
    "scene" : 0,
    "scenes" : [
        {
            "name" : "Scene",
            "nodes" : [
                0
            ]
        }
    ],
    "nodes" : [
        {
            "mesh" : 0,
            "name" : "lumberjack_full",
            "rotation" : [
                0.7071068286895752,
                0,
                0,
                0.7071068286895752
            ],
            "scale" : [
                0.005709575489163399,
                0.005709575489163399,
                0.005709575489163399
            ],
            "translation" : [
                0,
                0.010266683995723724,
                -0.021990180015563965
            ]
        }
    ],
    "materials" : [
        {
            "doubleSided" : true,
            "name" : "mat_axe",
            "pbrMetallicRoughness" : {
                "baseColorFactor" : [
                    0.5,
                    0.5,
                    0.5,
                    1
                ],
                "metallicFactor" : 0.5,
                "roughnessFactor" : 0.5527864098548889
            }
        },
        {
            "doubleSided" : true,
            "name" : "mat_hair",
            "pbrMetallicRoughness" : {
                "baseColorFactor" : [
                    0.09000000357627869,
                    0.05978263169527054,
                    0.028620002791285515,
                    1
                ],
                "roughnessFactor" : 0.5527864098548889
            }
        },
        {
            "doubleSided" : true,
            "name" : "mat_axe_2",
            "pbrMetallicRoughness" : {
                "baseColorFactor" : [
                    1,
                    0,
                    0.048200130462646484,
                    1
                ],
                "metallicFactor" : 0.5,
                "roughnessFactor" : 0.5527864098548889
            }
        },
        {
            "doubleSided" : true,
            "name" : "mat_pants",
            "pbrMetallicRoughness" : {
                "baseColorFactor" : [
                    0.052448030561208725,
                    0.19480518996715546,
                    0,
                    1
                ],
                "roughnessFactor" : 0.5527864098548889
            }
        },
        {
            "doubleSided" : true,
            "name" : "mat_shirt",
            "pbrMetallicRoughness" : {
                "baseColorFactor" : [
                    0.6570000052452087,
                    0.14393922686576843,
                    0.10117799043655396,
                    1
                ],
                "roughnessFactor" : 0.5527864098548889
            }
        },
        {
            "doubleSided" : true,
            "name" : "mat_hat",
            "pbrMetallicRoughness" : {
                "baseColorFactor" : [
                    0.17550000548362732,
                    0.5,
                    0.3421361446380615,
                    1
                ],
                "roughnessFactor" : 0.5527864098548889
            }
        },
        {
            "doubleSided" : true,
            "name" : "mat_skin",
            "pbrMetallicRoughness" : {
                "baseColorFactor" : [
                    1,
                    0.7272658348083496,
                    0.44599997997283936,
                    1
                ],
                "roughnessFactor" : 0.5527864098548889
            }
        },
        {
            "doubleSided" : true,
            "name" : "mat_boots",
            "pbrMetallicRoughness" : {
                "baseColorFactor" : [
                    0.09090909361839294,
                    0.09090909361839294,
                    0.09090909361839294,
                    1
                ],
                "metallicFactor" : 0.5,
                "roughnessFactor" : 0.5527864098548889
            }
        },
        {
            "doubleSided" : true,
            "name" : "lambert1",
            "pbrMetallicRoughness" : {
                "baseColorFactor" : [
                    0.5,
                    0.5,
                    0.5,
                    1
                ],
                "roughnessFactor" : 0.5527864098548889
            }
        },
        {
            "doubleSided" : true,
            "name" : "mat_sleeve",
            "pbrMetallicRoughness" : {
                "baseColorFactor" : [
                    1,
                    0.6654000282287598,
                    0.08089999854564667,
                    1
                ],
                "roughnessFactor" : 0.5527864098548889
            }
        }
    ],
    "meshes" : [
        {
            "name" : "Mesh",
            "primitives" : [
                {
                    "attributes" : {
                        "POSITION" : 0,
                        "NORMAL" : 1,
                        "TEXCOORD_0" : 2
                    },
                    "indices" : 3,
                    "material" : 0
                },
                {
                    "attributes" : {
                        "POSITION" : 4,
                        "NORMAL" : 5,
                        "TEXCOORD_0" : 6
                    },
                    "indices" : 7,
                    "material" : 1
                },
                {
                    "attributes" : {
                        "POSITION" : 8,
                        "NORMAL" : 9,
                        "TEXCOORD_0" : 10
                    },
                    "indices" : 11,
                    "material" : 2
                },
                {
                    "attributes" : {
                        "POSITION" : 12,
                        "NORMAL" : 13,
                        "TEXCOORD_0" : 14
                    },
                    "indices" : 15,
                    "material" : 3
                },
                {
                    "attributes" : {
                        "POSITION" : 16,
                        "NORMAL" : 17,
                        "TEXCOORD_0" : 18
                    },
                    "indices" : 19,
                    "material" : 4
                },
                {
                    "attributes" : {
                        "POSITION" : 20,
                        "NORMAL" : 21,
                        "TEXCOORD_0" : 22
                    },
                    "indices" : 23,
                    "material" : 5
                },
                {
                    "attributes" : {
                        "POSITION" : 24,
                        "NORMAL" : 25,
                        "TEXCOORD_0" : 26
                    },
                    "indices" : 27,
                    "material" : 6
                },
                {
                    "attributes" : {
                        "POSITION" : 28,
                        "NORMAL" : 29,
                        "TEXCOORD_0" : 30
                    },
                    "indices" : 31,
                    "material" : 7
                },
                {
                    "attributes" : {
                        "POSITION" : 32,
                        "NORMAL" : 33,
                        "TEXCOORD_0" : 34
                    },
                    "indices" : 35,
                    "material" : 8
                },
                {
                    "attributes" : {
                        "POSITION" : 36,
                        "NORMAL" : 37,
                        "TEXCOORD_0" : 38
                    },
                    "indices" : 39,
                    "material" : 9
                }
            ]
        }
    ],
    "accessors" : [
        {
            "bufferView" : 0,
            "componentType" : 5126,
            "count" : 20,
            "max" : [
                -31.268953323364258,
                23.91211700439453,
                -16.70282745361328
            ],
            "min" : [
                -35.91315841674805,
                12.419818878173828,
                -22.43337631225586
            ],
            "type" : "VEC3"
        },
        {
            "bufferView" : 1,
            "componentType" : 5126,
            "count" : 20,
            "type" : "VEC3"
        },
        {
            "bufferView" : 2,
            "componentType" : 5126,
            "count" : 20,
            "type" : "VEC2"
        },
        {
            "bufferView" : 3,
            "componentType" : 5123,
            "count" : 24,
            "type" : "SCALAR"
        },
        {
            "bufferView" : 4,
            "componentType" : 5126,
            "count" : 188,
            "max" : [
                3.7242536544799805,
                20.446971893310547,
                -21.425426483154297
            ],
            "min" : [
                -33.03779220581055,
                -9.478927612304688,
                -47.44157409667969
            ],
            "type" : "VEC3"
        },
        {
            "bufferView" : 5,
            "componentType" : 5126,
            "count" : 188,
            "type" : "VEC3"
        },
        {
            "bufferView" : 6,
            "componentType" : 5126,
            "count" : 188,
            "type" : "VEC2"
        },
        {
            "bufferView" : 7,
            "componentType" : 5123,
            "count" : 276,
            "type" : "SCALAR"
        },
        {
            "bufferView" : 8,
            "componentType" : 5126,
            "count" : 74,
            "max" : [
                -28.380355834960938,
                23.91211700439453,
                -18.89569854736328
            ],
            "min" : [
                -35.91315841674805,
                12.028776168823242,
                -34.25751876831055
            ],
            "type" : "VEC3"
        },
        {
            "bufferView" : 9,
            "componentType" : 5126,
            "count" : 74,
            "type" : "VEC3"
        },
        {
            "bufferView" : 10,
            "componentType" : 5126,
            "count" : 74,
            "type" : "VEC2"
        },
        {
            "bufferView" : 11,
            "componentType" : 5123,
            "count" : 120,
            "type" : "SCALAR"
        },
        {
            "bufferView" : 12,
            "componentType" : 5126,
            "count" : 386,
            "max" : [
                6.276756286621094,
                5.904889106750488,
                -2.3026437759399414
            ],
            "min" : [
                -6.2767558097839355,
                -5.214651584625244,
                -25.45496368408203
            ],
            "type" : "VEC3"
        },
        {
            "bufferView" : 13,
            "componentType" : 5126,
            "count" : 386,
            "type" : "VEC3"
        },
        {
            "bufferView" : 14,
            "componentType" : 5126,
            "count" : 386,
            "type" : "VEC2"
        },
        {
            "bufferView" : 15,
            "componentType" : 5123,
            "count" : 528,
            "type" : "SCALAR"
        },
        {
            "bufferView" : 16,
            "componentType" : 5126,
            "count" : 388,
            "max" : [
                19.333091735839844,
                7.127466201782227,
                -24.158851623535156
            ],
            "min" : [
                -19.333091735839844,
                -7.127466201782227,
                -42.662601470947266
            ],
            "type" : "VEC3"
        },
        {
            "bufferView" : 17,
            "componentType" : 5126,
            "count" : 388,
            "type" : "VEC3"
        },
        {
            "bufferView" : 18,
            "componentType" : 5126,
            "count" : 388,
            "type" : "VEC2"
        },
        {
            "bufferView" : 19,
            "componentType" : 5123,
            "count" : 600,
            "type" : "SCALAR"
        },
        {
            "bufferView" : 20,
            "componentType" : 5126,
            "count" : 164,
            "max" : [
                3.5825583934783936,
                6.163297653198242,
                -47.388084411621094
            ],
            "min" : [
                -3.5825581550598145,
                -2.146186113357544,
                -51.44553756713867
            ],
            "type" : "VEC3"
        },
        {
            "bufferView" : 21,
            "componentType" : 5126,
            "count" : 164,
            "type" : "VEC3"
        },
        {
            "bufferView" : 22,
            "componentType" : 5126,
            "count" : 164,
            "type" : "VEC2"
        },
        {
            "bufferView" : 23,
            "componentType" : 5123,
            "count" : 240,
            "type" : "SCALAR"
        },
        {
            "bufferView" : 24,
            "componentType" : 5126,
            "count" : 400,
            "max" : [
                31.81696891784668,
                6.128388404846191,
                -23.144012451171875
            ],
            "min" : [
                -30.022441864013672,
                -2.2100586891174316,
                -47.4428596496582
            ],
            "type" : "VEC3"
        },
        {
            "bufferView" : 25,
            "componentType" : 5126,
            "count" : 400,
            "type" : "VEC3"
        },
        {
            "bufferView" : 26,
            "componentType" : 5126,
            "count" : 400,
            "type" : "VEC2"
        },
        {
            "bufferView" : 27,
            "componentType" : 5123,
            "count" : 678,
            "type" : "SCALAR"
        },
        {
            "bufferView" : 28,
            "componentType" : 5126,
            "count" : 276,
            "max" : [
                4.848598003387451,
                4.64462947845459,
                0.2740449905395508
            ],
            "min" : [
                -4.848598003387451,
                0.011006529442965984,
                -2.3026533126831055
            ],
            "type" : "VEC3"
        },
        {
            "bufferView" : 29,
            "componentType" : 5126,
            "count" : 276,
            "type" : "VEC3"
        },
        {
            "bufferView" : 30,
            "componentType" : 5126,
            "count" : 276,
            "type" : "VEC2"
        },
        {
            "bufferView" : 31,
            "componentType" : 5123,
            "count" : 384,
            "type" : "SCALAR"
        },
        {
            "bufferView" : 32,
            "componentType" : 5126,
            "count" : 4,
            "max" : [
                -25.289396286010742,
                3.80026912689209,
                -24.723464965820312
            ],
            "min" : [
                -27.021068572998047,
                2.118527412414551,
                -26.30384063720703
            ],
            "type" : "VEC3"
        },
        {
            "bufferView" : 33,
            "componentType" : 5126,
            "count" : 4,
            "type" : "VEC3"
        },
        {
            "bufferView" : 34,
            "componentType" : 5126,
            "count" : 4,
            "type" : "VEC2"
        },
        {
            "bufferView" : 35,
            "componentType" : 5123,
            "count" : 6,
            "type" : "SCALAR"
        },
        {
            "bufferView" : 36,
            "componentType" : 5126,
            "count" : 192,
            "max" : [
                21.173938751220703,
                3.047757148742676,
                -27.009506225585938
            ],
            "min" : [
                -21.173940658569336,
                -3.0097579956054688,
                -32.4819450378418
            ],
            "type" : "VEC3"
        },
        {
            "bufferView" : 37,
            "componentType" : 5126,
            "count" : 192,
            "type" : "VEC3"
        },
        {
            "bufferView" : 38,
            "componentType" : 5126,
            "count" : 192,
            "type" : "VEC2"
        },
        {
            "bufferView" : 39,
            "componentType" : 5123,
            "count" : 288,
            "type" : "SCALAR"
        }
    ],
    "bufferViews" : [
        {
            "buffer" : 0,
            "byteLength" : 240,
            "byteOffset" : 0
        },
        {
            "buffer" : 0,
            "byteLength" : 240,
            "byteOffset" : 240
        },
        {
            "buffer" : 0,
            "byteLength" : 160,
            "byteOffset" : 480
        },
        {
            "buffer" : 0,
            "byteLength" : 48,
            "byteOffset" : 640
        },
        {
            "buffer" : 0,
            "byteLength" : 2256,
            "byteOffset" : 688
        },
        {
            "buffer" : 0,
            "byteLength" : 2256,
            "byteOffset" : 2944
        },
        {
            "buffer" : 0,
            "byteLength" : 1504,
            "byteOffset" : 5200
        },
        {
            "buffer" : 0,
            "byteLength" : 552,
            "byteOffset" : 6704
        },
        {
            "buffer" : 0,
            "byteLength" : 888,
            "byteOffset" : 7256
        },
        {
            "buffer" : 0,
            "byteLength" : 888,
            "byteOffset" : 8144
        },
        {
            "buffer" : 0,
            "byteLength" : 592,
            "byteOffset" : 9032
        },
        {
            "buffer" : 0,
            "byteLength" : 240,
            "byteOffset" : 9624
        },
        {
            "buffer" : 0,
            "byteLength" : 4632,
            "byteOffset" : 9864
        },
        {
            "buffer" : 0,
            "byteLength" : 4632,
            "byteOffset" : 14496
        },
        {
            "buffer" : 0,
            "byteLength" : 3088,
            "byteOffset" : 19128
        },
        {
            "buffer" : 0,
            "byteLength" : 1056,
            "byteOffset" : 22216
        },
        {
            "buffer" : 0,
            "byteLength" : 4656,
            "byteOffset" : 23272
        },
        {
            "buffer" : 0,
            "byteLength" : 4656,
            "byteOffset" : 27928
        },
        {
            "buffer" : 0,
            "byteLength" : 3104,
            "byteOffset" : 32584
        },
        {
            "buffer" : 0,
            "byteLength" : 1200,
            "byteOffset" : 35688
        },
        {
            "buffer" : 0,
            "byteLength" : 1968,
            "byteOffset" : 36888
        },
        {
            "buffer" : 0,
            "byteLength" : 1968,
            "byteOffset" : 38856
        },
        {
            "buffer" : 0,
            "byteLength" : 1312,
            "byteOffset" : 40824
        },
        {
            "buffer" : 0,
            "byteLength" : 480,
            "byteOffset" : 42136
        },
        {
            "buffer" : 0,
            "byteLength" : 4800,
            "byteOffset" : 42616
        },
        {
            "buffer" : 0,
            "byteLength" : 4800,
            "byteOffset" : 47416
        },
        {
            "buffer" : 0,
            "byteLength" : 3200,
            "byteOffset" : 52216
        },
        {
            "buffer" : 0,
            "byteLength" : 1356,
            "byteOffset" : 55416
        },
        {
            "buffer" : 0,
            "byteLength" : 3312,
            "byteOffset" : 56772
        },
        {
            "buffer" : 0,
            "byteLength" : 3312,
            "byteOffset" : 60084
        },
        {
            "buffer" : 0,
            "byteLength" : 2208,
            "byteOffset" : 63396
        },
        {
            "buffer" : 0,
            "byteLength" : 768,
            "byteOffset" : 65604
        },
        {
            "buffer" : 0,
            "byteLength" : 48,
            "byteOffset" : 66372
        },
        {
            "buffer" : 0,
            "byteLength" : 48,
            "byteOffset" : 66420
        },
        {
            "buffer" : 0,
            "byteLength" : 32,
            "byteOffset" : 66468
        },
        {
            "buffer" : 0,
            "byteLength" : 12,
            "byteOffset" : 66500
        },
        {
            "buffer" : 0,
            "byteLength" : 2304,
            "byteOffset" : 66512
        },
        {
            "buffer" : 0,
            "byteLength" : 2304,
            "byteOffset" : 68816
        },
        {
            "buffer" : 0,
            "byteLength" : 1536,
            "byteOffset" : 71120
        },
        {
            "buffer" : 0,
            "byteLength" : 576,
            "byteOffset" : 72656
        }
    ],
    "buffers" : [
        {
            "byteLength" : 73232,
            "uri" : "data:application/octet-stream;base64,"
        }
    ]
}
