{
    "asset" : {
        "generator" : "Khronos glTF Blender I/O v1.7.33",
        "version" : "2.0"
    },
    "scene" : 0,
    "scenes" : [
        {
            "name" : "Scene",
            "nodes" : [
                0
            ]
        }
    ],
    "nodes" : [
        {
            "mesh" : 0,
            "name" : "BezierCurve.006",
            "scale" : [
                0.17475076019763947,
                0.17475076019763947,
                0.17475076019763947
            ]
        }
    ],
    "materials" : [
        {
            "doubleSided" : true,
            "name" : "M_Granny.001",
            "pbrMetallicRoughness" : {
                "baseColorTexture" : {
                    "index" : 0
                },
                "metallicFactor" : 0,
                "roughnessFactor" : 0.4000000059604645
            }
        }
    ],
    "meshes" : [
        {
            "name" : "BezierCurve.001",
            "primitives" : [
                {
                    "attributes" : {
                        "POSITION" : 0,
                        "NORMAL" : 1,
                        "TEXCOORD_0" : 2
                    },
                    "indices" : 3,
                    "material" : 0
                }
            ]
        }
    ],
    "textures" : [
        {
            "sampler" : 0,
            "source" : 0
        }
    ],
    "images" : [
        {
            "bufferView" : 4,
            "mimeType" : "image/png",
            "name" : "T_Granny"
        }
    ],
    "accessors" : [
        {
            "bufferView" : 0,
            "componentType" : 5126,
            "count" : 3168,
            "max" : [
                0.4382072389125824,
                1.8328789472579956,
                0.2634068727493286
            ],
            "min" : [
                -0.4382072389125824,
                -0.006561592221260071,
                -0.31949174404144287
            ],
            "type" : "VEC3"
        },
        {
            "bufferView" : 1,
            "componentType" : 5126,
            "count" : 3168,
            "type" : "VEC3"
        },
        {
            "bufferView" : 2,
            "componentType" : 5126,
            "count" : 3168,
            "type" : "VEC2"
        },
        {
            "bufferView" : 3,
            "componentType" : 5123,
            "count" : 14094,
            "type" : "SCALAR"
        }
    ],
    "bufferViews" : [
        {
            "buffer" : 0,
            "byteLength" : 38016,
            "byteOffset" : 0
        },
        {
            "buffer" : 0,
            "byteLength" : 38016,
            "byteOffset" : 38016
        },
        {
            "buffer" : 0,
            "byteLength" : 25344,
            "byteOffset" : 76032
        },
        {
            "buffer" : 0,
            "byteLength" : 28188,
            "byteOffset" : 101376
        },
        {
            "buffer" : 0,
            "byteLength" : 415524,
            "byteOffset" : 129564
        }
    ],
    "samplers" : [
        {
            "magFilter" : 9729,
            "minFilter" : 9987
        }
    ],
    "buffers" : [
        {
            "byteLength" : 545088,
            "uri" : "data:application/octet-stream;base64,"
        }
    ]
}
