{
    "asset" : {
        "generator" : "Khronos glTF Blender I/O v1.7.33",
        "version" : "2.0"
    },
    "scene" : 0,
    "scenes" : [
        {
            "name" : "Scene",
            "nodes" : [
                0
            ]
        }
    ],
    "nodes" : [
        {
            "mesh" : 0,
            "name" : "Cube.038",
            "scale" : [
                0.21884077787399292,
                0.21884077787399292,
                0.21884077787399292
            ],
            "translation" : [
                -0.013492226600646973,
                0.01616600528359413,
                -0.002164900302886963
            ]
        }
    ],
    "materials" : [
        {
            "doubleSided" : true,
            "name" : "Material.007",
            "pbrMetallicRoughness" : {
                "baseColorFactor" : [
                    0.4292243421077728,
                    0.2619034945964813,
                    0.20987580716609955,
                    1
                ],
                "metallicFactor" : 0,
                "roughnessFactor" : 0.5
            }
        },
        {
            "doubleSided" : true,
            "name" : "Material.008",
            "pbrMetallicRoughness" : {
                "baseColorFactor" : [
                    0.03531557321548462,
                    0.05725591629743576,
                    0.11493263393640518,
                    1
                ],
                "metallicFactor" : 0,
                "roughnessFactor" : 0.5
            }
        },
        {
            "doubleSided" : true,
            "name" : "isba.001",
            "pbrMetallicRoughness" : {
                "baseColorFactor" : [
                    0.13614344596862793,
                    0.2528909146785736,
                    0.6500037908554077,
                    1
                ],
                "metallicFactor" : 0,
                "roughnessFactor" : 0.5
            }
        }
    ],
    "meshes" : [
        {
            "name" : "Cube.001",
            "primitives" : [
                {
                    "attributes" : {
                        "POSITION" : 0,
                        "NORMAL" : 1,
                        "TEXCOORD_0" : 2
                    },
                    "indices" : 3,
                    "material" : 0
                },
                {
                    "attributes" : {
                        "POSITION" : 4,
                        "NORMAL" : 5,
                        "TEXCOORD_0" : 6
                    },
                    "indices" : 7,
                    "material" : 1
                },
                {
                    "attributes" : {
                        "POSITION" : 8,
                        "NORMAL" : 9,
                        "TEXCOORD_0" : 10
                    },
                    "indices" : 11,
                    "material" : 2
                }
            ]
        }
    ],
    "accessors" : [
        {
            "bufferView" : 0,
            "componentType" : 5126,
            "count" : 1251,
            "max" : [
                1.0407384634017944,
                1.6227902173995972,
                1.2975273132324219
            ],
            "min" : [
                -1.134568691253662,
                0.26630017161369324,
                -1.2834218740463257
            ],
            "type" : "VEC3"
        },
        {
            "bufferView" : 1,
            "componentType" : 5126,
            "count" : 1251,
            "type" : "VEC3"
        },
        {
            "bufferView" : 2,
            "componentType" : 5126,
            "count" : 1251,
            "type" : "VEC2"
        },
        {
            "bufferView" : 3,
            "componentType" : 5123,
            "count" : 1368,
            "type" : "SCALAR"
        },
        {
            "bufferView" : 4,
            "componentType" : 5126,
            "count" : 528,
            "max" : [
                0.8328394889831543,
                1.5975831747055054,
                1.440005898475647
            ],
            "min" : [
                -0.9028077125549316,
                0.6260122060775757,
                -1.566102147102356
            ],
            "type" : "VEC3"
        },
        {
            "bufferView" : 5,
            "componentType" : 5126,
            "count" : 528,
            "type" : "VEC3"
        },
        {
            "bufferView" : 6,
            "componentType" : 5126,
            "count" : 528,
            "type" : "VEC2"
        },
        {
            "bufferView" : 7,
            "componentType" : 5123,
            "count" : 768,
            "type" : "SCALAR"
        },
        {
            "bufferView" : 8,
            "componentType" : 5126,
            "count" : 3184,
            "max" : [
                0.9947109222412109,
                1.472328782081604,
                1.2496603727340698
            ],
            "min" : [
                -1.1758415699005127,
                -0.11367020010948181,
                -1.1181225776672363
            ],
            "type" : "VEC3"
        },
        {
            "bufferView" : 9,
            "componentType" : 5126,
            "count" : 3184,
            "type" : "VEC3"
        },
        {
            "bufferView" : 10,
            "componentType" : 5126,
            "count" : 3184,
            "type" : "VEC2"
        },
        {
            "bufferView" : 11,
            "componentType" : 5123,
            "count" : 4212,
            "type" : "SCALAR"
        }
    ],
    "bufferViews" : [
        {
            "buffer" : 0,
            "byteLength" : 15012,
            "byteOffset" : 0
        },
        {
            "buffer" : 0,
            "byteLength" : 15012,
            "byteOffset" : 15012
        },
        {
            "buffer" : 0,
            "byteLength" : 10008,
            "byteOffset" : 30024
        },
        {
            "buffer" : 0,
            "byteLength" : 2736,
            "byteOffset" : 40032
        },
        {
            "buffer" : 0,
            "byteLength" : 6336,
            "byteOffset" : 42768
        },
        {
            "buffer" : 0,
            "byteLength" : 6336,
            "byteOffset" : 49104
        },
        {
            "buffer" : 0,
            "byteLength" : 4224,
            "byteOffset" : 55440
        },
        {
            "buffer" : 0,
            "byteLength" : 1536,
            "byteOffset" : 59664
        },
        {
            "buffer" : 0,
            "byteLength" : 38208,
            "byteOffset" : 61200
        },
        {
            "buffer" : 0,
            "byteLength" : 38208,
            "byteOffset" : 99408
        },
        {
            "buffer" : 0,
            "byteLength" : 25472,
            "byteOffset" : 137616
        },
        {
            "buffer" : 0,
            "byteLength" : 8424,
            "byteOffset" : 163088
        }
    ],
    "buffers" : [
        {
            "byteLength" : 171512,
            "uri" : "data:application/octet-stream;base64,"
        }
    ]
}
