{
    "asset" : {
        "generator" : "Khronos glTF Blender I/O v1.7.33",
        "version" : "2.0"
    },
    "scene" : 0,
    "scenes" : [
        {
            "name" : "Scene",
            "nodes" : [
                0
            ]
        }
    ],
    "nodes" : [
        {
            "mesh" : 0,
            "name" : "tree",
            "rotation" : [
                -0.7071068286895752,
                0,
                0,
                0.7071067094802856
            ],
            "scale" : [
                0.14421199262142181,
                0.14421199262142181,
                0.14421199262142181
            ]
        }
    ],
    "materials" : [
        {
            "name" : "\u041c\u0430\u0442\u0435\u0440\u0438\u0430\u043b.002",
            "pbrMetallicRoughness" : {
                "baseColorFactor" : [
                    0.8000000715255737,
                    0.48327258229255676,
                    0.38525429368019104,
                    1
                ],
                "metallicFactor" : 0,
                "roughnessFactor" : 0
            }
        }
    ],
    "meshes" : [
        {
            "name" : "tree",
            "primitives" : [
                {
                    "attributes" : {
                        "POSITION" : 0,
                        "NORMAL" : 1,
                        "TEXCOORD_0" : 2
                    },
                    "indices" : 3,
                    "material" : 0
                }
            ]
        }
    ],
    "accessors" : [
        {
            "bufferView" : 0,
            "componentType" : 5126,
            "count" : 1848,
            "max" : [
                2.092512607574463,
                0.5499635338783264,
                5.538322448730469
            ],
            "min" : [
                -1.8413816690444946,
                -1.4050707817077637,
                0
            ],
            "type" : "VEC3"
        },
        {
            "bufferView" : 1,
            "componentType" : 5126,
            "count" : 1848,
            "type" : "VEC3"
        },
        {
            "bufferView" : 2,
            "componentType" : 5126,
            "count" : 1848,
            "type" : "VEC2"
        },
        {
            "bufferView" : 3,
            "componentType" : 5123,
            "count" : 1848,
            "type" : "SCALAR"
        }
    ],
    "bufferViews" : [
        {
            "buffer" : 0,
            "byteLength" : 22176,
            "byteOffset" : 0
        },
        {
            "buffer" : 0,
            "byteLength" : 22176,
            "byteOffset" : 22176
        },
        {
            "buffer" : 0,
            "byteLength" : 14784,
            "byteOffset" : 44352
        },
        {
            "buffer" : 0,
            "byteLength" : 3696,
            "byteOffset" : 59136
        }
    ],
    "buffers" : [
        {
            "byteLength" : 62832,
            "uri" : "data:application/octet-stream;base64,"
        }
    ]
}
