{
    "asset" : {
        "generator" : "Khronos glTF Blender I/O v1.7.33",
        "version" : "2.0"
    },
    "scene" : 0,
    "scenes" : [
        {
            "name" : "Scene",
            "nodes" : [
                0
            ]
        }
    ],
    "nodes" : [
        {
            "mesh" : 0,
            "name" : "wolf",
            "scale" : [
                0.08108119666576385,
                0.08108119666576385,
                0.08108119666576385
            ],
            "translation" : [
                0,
                0.27600276470184326,
                0
            ]
        }
    ],
    "materials" : [
        {
            "doubleSided" : true,
            "name" : "Material.002",
            "pbrMetallicRoughness" : {
                "baseColorFactor" : [
                    0.800000011920929,
                    0.800000011920929,
                    0.800000011920929,
                    1
                ],
                "metallicFactor" : 0,
                "roughnessFactor" : 0.5
            }
        },
        {
            "doubleSided" : true,
            "name" : "Material.001",
            "pbrMetallicRoughness" : {
                "baseColorFactor" : [
                    0.032558709383010864,
                    0.032558709383010864,
                    0.032558709383010864,
                    1
                ],
                "metallicFactor" : 0,
                "roughnessFactor" : 0.5
            }
        }
    ],
    "meshes" : [
        {
            "name" : "Claw.001",
            "primitives" : [
                {
                    "attributes" : {
                        "POSITION" : 0,
                        "NORMAL" : 1,
                        "TEXCOORD_0" : 2,
                        "TEXCOORD_1" : 3,
                        "COLOR_0" : 4
                    },
                    "indices" : 5,
                    "material" : 0
                },
                {
                    "attributes" : {
                        "POSITION" : 6,
                        "NORMAL" : 7,
                        "TEXCOORD_0" : 8,
                        "TEXCOORD_1" : 9,
                        "COLOR_0" : 10
                    },
                    "indices" : 11,
                    "material" : 1
                }
            ]
        }
    ],
    "accessors" : [
        {
            "bufferView" : 0,
            "componentType" : 5126,
            "count" : 3281,
            "max" : [
                0.8594001531600952,
                1.565176010131836,
                3.1382620334625244
            ],
            "min" : [
                -0.8594001531600952,
                -1.2260558605194092,
                -0.720056414604187
            ],
            "type" : "VEC3"
        },
        {
            "bufferView" : 1,
            "componentType" : 5126,
            "count" : 3281,
            "type" : "VEC3"
        },
        {
            "bufferView" : 2,
            "componentType" : 5126,
            "count" : 3281,
            "type" : "VEC2"
        },
        {
            "bufferView" : 3,
            "componentType" : 5126,
            "count" : 3281,
            "type" : "VEC2"
        },
        {
            "bufferView" : 4,
            "componentType" : 5123,
            "count" : 3281,
            "normalized" : true,
            "type" : "VEC4"
        },
        {
            "bufferView" : 5,
            "componentType" : 5123,
            "count" : 15282,
            "type" : "SCALAR"
        },
        {
            "bufferView" : 6,
            "componentType" : 5126,
            "count" : 10843,
            "max" : [
                0.8485272526741028,
                2.1750617027282715,
                3.3833696842193604
            ],
            "min" : [
                -0.8485272526741028,
                -1.2275115251541138,
                -3.713836669921875
            ],
            "type" : "VEC3"
        },
        {
            "bufferView" : 7,
            "componentType" : 5126,
            "count" : 10843,
            "type" : "VEC3"
        },
        {
            "bufferView" : 8,
            "componentType" : 5126,
            "count" : 10843,
            "type" : "VEC2"
        },
        {
            "bufferView" : 9,
            "componentType" : 5126,
            "count" : 10843,
            "type" : "VEC2"
        },
        {
            "bufferView" : 10,
            "componentType" : 5123,
            "count" : 10843,
            "normalized" : true,
            "type" : "VEC4"
        },
        {
            "bufferView" : 11,
            "componentType" : 5123,
            "count" : 56895,
            "type" : "SCALAR"
        }
    ],
    "bufferViews" : [
        {
            "buffer" : 0,
            "byteLength" : 39372,
            "byteOffset" : 0
        },
        {
            "buffer" : 0,
            "byteLength" : 39372,
            "byteOffset" : 39372
        },
        {
            "buffer" : 0,
            "byteLength" : 26248,
            "byteOffset" : 78744
        },
        {
            "buffer" : 0,
            "byteLength" : 26248,
            "byteOffset" : 104992
        },
        {
            "buffer" : 0,
            "byteLength" : 26248,
            "byteOffset" : 131240
        },
        {
            "buffer" : 0,
            "byteLength" : 30564,
            "byteOffset" : 157488
        },
        {
            "buffer" : 0,
            "byteLength" : 130116,
            "byteOffset" : 188052
        },
        {
            "buffer" : 0,
            "byteLength" : 130116,
            "byteOffset" : 318168
        },
        {
            "buffer" : 0,
            "byteLength" : 86744,
            "byteOffset" : 448284
        },
        {
            "buffer" : 0,
            "byteLength" : 86744,
            "byteOffset" : 535028
        },
        {
            "buffer" : 0,
            "byteLength" : 86744,
            "byteOffset" : 621772
        },
        {
            "buffer" : 0,
            "byteLength" : 113790,
            "byteOffset" : 708516
        }
    ],
    "buffers" : [
        {
            "byteLength" : 822308,
            "uri" : "data:application/octet-stream;base64,"
        }
    ]
}
