{
    "asset" : {
        "generator" : "Khronos glTF Blender I/O v1.7.33",
        "version" : "2.0"
    },
    "scene" : 0,
    "scenes" : [
        {
            "name" : "Scene",
            "nodes" : [
                0
            ]
        }
    ],
    "nodes" : [
        {
            "mesh" : 0,
            "name" : "EL-new",
            "rotation" : [
                -0.7071068286895752,
                0,
                0,
                0.7071067094802856
            ],
            "scale" : [
                0.0759994313120842,
                0.0759994238615036,
                0.0759994238615036
            ],
            "translation" : [
                -0.009999990463256836,
                0,
                0
            ]
        }
    ],
    "materials" : [
        {
            "emissiveFactor" : [
                0.02832523174583912,
                0.1733514964580536,
                0.053070180118083954
            ],
            "name" : "\u041c\u0430\u0442\u0435\u0440\u0438\u0430\u043b.003",
            "pbrMetallicRoughness" : {
                "baseColorFactor" : [
                    0.03122049570083618,
                    0.11492978036403656,
                    0.0809759870171547,
                    1
                ],
                "metallicFactor" : 0,
                "roughnessFactor" : 0
            }
        },
        {
            "name" : "\u041c\u0430\u0442\u0435\u0440\u0438\u0430\u043b.004",
            "pbrMetallicRoughness" : {
                "baseColorFactor" : [
                    0.8000000715255737,
                    0.48327258229255676,
                    0.38525429368019104,
                    1
                ],
                "metallicFactor" : 0,
                "roughnessFactor" : 0
            }
        }
    ],
    "meshes" : [
        {
            "name" : "tree.001",
            "primitives" : [
                {
                    "attributes" : {
                        "POSITION" : 0,
                        "NORMAL" : 1,
                        "TEXCOORD_0" : 2
                    },
                    "indices" : 3,
                    "material" : 0
                },
                {
                    "attributes" : {
                        "POSITION" : 4,
                        "NORMAL" : 5,
                        "TEXCOORD_0" : 6
                    },
                    "indices" : 7,
                    "material" : 1
                }
            ]
        }
    ],
    "accessors" : [
        {
            "bufferView" : 0,
            "componentType" : 5126,
            "count" : 1314,
            "max" : [
                1.3257546424865723,
                1.3530466556549072,
                6.055605888366699
            ],
            "min" : [
                -1.6039453744888306,
                -1.7802352905273438,
                1.6231797933578491
            ],
            "type" : "VEC3"
        },
        {
            "bufferView" : 1,
            "componentType" : 5126,
            "count" : 1314,
            "type" : "VEC3"
        },
        {
            "bufferView" : 2,
            "componentType" : 5126,
            "count" : 1314,
            "type" : "VEC2"
        },
        {
            "bufferView" : 3,
            "componentType" : 5123,
            "count" : 1314,
            "type" : "SCALAR"
        },
        {
            "bufferView" : 4,
            "componentType" : 5126,
            "count" : 504,
            "max" : [
                0.3969355821609497,
                0.6364202499389648,
                5.929934501647949
            ],
            "min" : [
                -0.8306718468666077,
                -0.6556158065795898,
                0
            ],
            "type" : "VEC3"
        },
        {
            "bufferView" : 5,
            "componentType" : 5126,
            "count" : 504,
            "type" : "VEC3"
        },
        {
            "bufferView" : 6,
            "componentType" : 5126,
            "count" : 504,
            "type" : "VEC2"
        },
        {
            "bufferView" : 7,
            "componentType" : 5123,
            "count" : 504,
            "type" : "SCALAR"
        }
    ],
    "bufferViews" : [
        {
            "buffer" : 0,
            "byteLength" : 15768,
            "byteOffset" : 0
        },
        {
            "buffer" : 0,
            "byteLength" : 15768,
            "byteOffset" : 15768
        },
        {
            "buffer" : 0,
            "byteLength" : 10512,
            "byteOffset" : 31536
        },
        {
            "buffer" : 0,
            "byteLength" : 2628,
            "byteOffset" : 42048
        },
        {
            "buffer" : 0,
            "byteLength" : 6048,
            "byteOffset" : 44676
        },
        {
            "buffer" : 0,
            "byteLength" : 6048,
            "byteOffset" : 50724
        },
        {
            "buffer" : 0,
            "byteLength" : 4032,
            "byteOffset" : 56772
        },
        {
            "buffer" : 0,
            "byteLength" : 1008,
            "byteOffset" : 60804
        }
    ],
    "buffers" : [
        {
            "byteLength" : 61812,
            "uri" : "data:application/octet-stream;base64,"
        }
    ]
}
