{
    "asset" : {
        "generator" : "Khronos glTF Blender I/O v1.7.33",
        "version" : "2.0"
    },
    "scene" : 0,
    "scenes" : [
        {
            "name" : "Scene",
            "nodes" : [
                0
            ]
        }
    ],
    "nodes" : [
        {
            "mesh" : 0,
            "name" : "Cone.007",
            "rotation" : [
                0.07513902336359024,
                -0.016453752294182777,
                0.13442522287368774,
                0.9879338145256042
            ],
            "scale" : [
                0.05099105089902878,
                0.05099105089902878,
                0.05099105089902878
            ],
            "translation" : [
                0.0027477387338876724,
                0.11882548034191132,
                0.007395168766379356
            ]
        }
    ],
    "materials" : [
        {
            "doubleSided" : true,
            "name" : "red",
            "pbrMetallicRoughness" : {
                "baseColorFactor" : [
                    0.8000000715255737,
                    0.011436465196311474,
                    0.011436465196311474,
                    1
                ],
                "metallicFactor" : 0,
                "roughnessFactor" : 0.5
            }
        },
        {
            "doubleSided" : true,
            "name" : "Material.002",
            "pbrMetallicRoughness" : {
                "baseColorFactor" : [
                    0.03531557321548462,
                    0.05725591629743576,
                    0.11493263393640518,
                    1
                ],
                "metallicFactor" : 0,
                "roughnessFactor" : 0.5
            }
        },
        {
            "doubleSided" : true,
            "name" : "Material.001",
            "pbrMetallicRoughness" : {
                "baseColorFactor" : [
                    0.4292243421077728,
                    0.2619034945964813,
                    0.20987580716609955,
                    1
                ],
                "metallicFactor" : 0,
                "roughnessFactor" : 0.5
            }
        },
        {
            "doubleSided" : true,
            "name" : "skin",
            "pbrMetallicRoughness" : {
                "baseColorFactor" : [
                    0.8000000715255737,
                    0.6366098523139954,
                    0.4797684848308563,
                    1
                ],
                "metallicFactor" : 0,
                "roughnessFactor" : 0.5
            }
        }
    ],
    "meshes" : [
        {
            "name" : "Cone.006",
            "primitives" : [
                {
                    "attributes" : {
                        "POSITION" : 0,
                        "NORMAL" : 1,
                        "TEXCOORD_0" : 2
                    },
                    "indices" : 3,
                    "material" : 0
                },
                {
                    "attributes" : {
                        "POSITION" : 4,
                        "NORMAL" : 5,
                        "TEXCOORD_0" : 6
                    },
                    "indices" : 7,
                    "material" : 1
                },
                {
                    "attributes" : {
                        "POSITION" : 8,
                        "NORMAL" : 9,
                        "TEXCOORD_0" : 10
                    },
                    "indices" : 11,
                    "material" : 2
                },
                {
                    "attributes" : {
                        "POSITION" : 12,
                        "NORMAL" : 13,
                        "TEXCOORD_0" : 14
                    },
                    "indices" : 15,
                    "material" : 3
                }
            ]
        }
    ],
    "accessors" : [
        {
            "bufferView" : 0,
            "componentType" : 5126,
            "count" : 438,
            "max" : [
                1.4026936292648315,
                2.564523935317993,
                1.5345333814620972
            ],
            "min" : [
                -1.7658454179763794,
                -1.578346610069275,
                -1.6484636068344116
            ],
            "type" : "VEC3"
        },
        {
            "bufferView" : 1,
            "componentType" : 5126,
            "count" : 438,
            "type" : "VEC3"
        },
        {
            "bufferView" : 2,
            "componentType" : 5126,
            "count" : 438,
            "type" : "VEC2"
        },
        {
            "bufferView" : 3,
            "componentType" : 5123,
            "count" : 468,
            "type" : "SCALAR"
        },
        {
            "bufferView" : 4,
            "componentType" : 5126,
            "count" : 70,
            "max" : [
                0.0136566162109375,
                -0.44660061597824097,
                0.5836976766586304
            ],
            "min" : [
                -0.5380531549453735,
                -1.7400201559066772,
                -0.47264090180397034
            ],
            "type" : "VEC3"
        },
        {
            "bufferView" : 5,
            "componentType" : 5126,
            "count" : 70,
            "type" : "VEC3"
        },
        {
            "bufferView" : 6,
            "componentType" : 5126,
            "count" : 70,
            "type" : "VEC2"
        },
        {
            "bufferView" : 7,
            "componentType" : 5123,
            "count" : 72,
            "type" : "SCALAR"
        },
        {
            "bufferView" : 8,
            "componentType" : 5126,
            "count" : 36,
            "max" : [
                0.6117584705352783,
                0.3534001111984253,
                1.6901757717132568
            ],
            "min" : [
                -0.5162966847419739,
                -0.53080153465271,
                1.0390205383300781
            ],
            "type" : "VEC3"
        },
        {
            "bufferView" : 9,
            "componentType" : 5126,
            "count" : 36,
            "type" : "VEC3"
        },
        {
            "bufferView" : 10,
            "componentType" : 5126,
            "count" : 36,
            "type" : "VEC2"
        },
        {
            "bufferView" : 11,
            "componentType" : 5123,
            "count" : 36,
            "type" : "SCALAR"
        },
        {
            "bufferView" : 12,
            "componentType" : 5126,
            "count" : 332,
            "max" : [
                1.045311450958252,
                2.029621124267578,
                0.39271506667137146
            ],
            "min" : [
                -0.352846622467041,
                0.6302067637443542,
                -1.0018863677978516
            ],
            "type" : "VEC3"
        },
        {
            "bufferView" : 13,
            "componentType" : 5126,
            "count" : 332,
            "type" : "VEC3"
        },
        {
            "bufferView" : 14,
            "componentType" : 5126,
            "count" : 332,
            "type" : "VEC2"
        },
        {
            "bufferView" : 15,
            "componentType" : 5123,
            "count" : 336,
            "type" : "SCALAR"
        }
    ],
    "bufferViews" : [
        {
            "buffer" : 0,
            "byteLength" : 5256,
            "byteOffset" : 0
        },
        {
            "buffer" : 0,
            "byteLength" : 5256,
            "byteOffset" : 5256
        },
        {
            "buffer" : 0,
            "byteLength" : 3504,
            "byteOffset" : 10512
        },
        {
            "buffer" : 0,
            "byteLength" : 936,
            "byteOffset" : 14016
        },
        {
            "buffer" : 0,
            "byteLength" : 840,
            "byteOffset" : 14952
        },
        {
            "buffer" : 0,
            "byteLength" : 840,
            "byteOffset" : 15792
        },
        {
            "buffer" : 0,
            "byteLength" : 560,
            "byteOffset" : 16632
        },
        {
            "buffer" : 0,
            "byteLength" : 144,
            "byteOffset" : 17192
        },
        {
            "buffer" : 0,
            "byteLength" : 432,
            "byteOffset" : 17336
        },
        {
            "buffer" : 0,
            "byteLength" : 432,
            "byteOffset" : 17768
        },
        {
            "buffer" : 0,
            "byteLength" : 288,
            "byteOffset" : 18200
        },
        {
            "buffer" : 0,
            "byteLength" : 72,
            "byteOffset" : 18488
        },
        {
            "buffer" : 0,
            "byteLength" : 3984,
            "byteOffset" : 18560
        },
        {
            "buffer" : 0,
            "byteLength" : 3984,
            "byteOffset" : 22544
        },
        {
            "buffer" : 0,
            "byteLength" : 2656,
            "byteOffset" : 26528
        },
        {
            "buffer" : 0,
            "byteLength" : 672,
            "byteOffset" : 29184
        }
    ],
    "buffers" : [
        {
            "byteLength" : 29856,
            "uri" : "data:application/octet-stream;base64,"
        }
    ]
}
