{
    "asset" : {
        "generator" : "Khronos glTF Blender I/O v1.7.33",
        "version" : "2.0"
    },
    "scene" : 0,
    "scenes" : [
        {
            "name" : "Scene",
            "nodes" : [
                0
            ]
        }
    ],
    "nodes" : [
        {
            "mesh" : 0,
            "name" : "Cone.007",
            "scale" : [
                0.05099105089902878,
                0.05099105089902878,
                0.05099105089902878
            ],
            "translation" : [
                0.03303992375731468,
                0.16982129216194153,
                -0.012484251521527767
            ]
        }
    ],
    "materials" : [
        {
            "doubleSided" : true,
            "name" : "red.003",
            "pbrMetallicRoughness" : {
                "baseColorFactor" : [
                    0.8000000715255737,
                    0.011436465196311474,
                    0.011436465196311474,
                    1
                ],
                "metallicFactor" : 0,
                "roughnessFactor" : 0.5
            }
        },
        {
            "doubleSided" : true,
            "name" : "Material.009",
            "pbrMetallicRoughness" : {
                "baseColorFactor" : [
                    0.03531557321548462,
                    0.05725591629743576,
                    0.11493263393640518,
                    1
                ],
                "metallicFactor" : 0,
                "roughnessFactor" : 0.5
            }
        },
        {
            "doubleSided" : true,
            "name" : "Material.010",
            "pbrMetallicRoughness" : {
                "baseColorFactor" : [
                    0.4292243421077728,
                    0.2619034945964813,
                    0.20987580716609955,
                    1
                ],
                "metallicFactor" : 0,
                "roughnessFactor" : 0.5
            }
        },
        {
            "doubleSided" : true,
            "name" : "skin.003",
            "pbrMetallicRoughness" : {
                "baseColorFactor" : [
                    0.8000000715255737,
                    0.6366098523139954,
                    0.4797684848308563,
                    1
                ],
                "metallicFactor" : 0,
                "roughnessFactor" : 0.5
            }
        }
    ],
    "meshes" : [
        {
            "name" : "Cone.003",
            "primitives" : [
                {
                    "attributes" : {
                        "POSITION" : 0,
                        "NORMAL" : 1,
                        "TEXCOORD_0" : 2
                    },
                    "indices" : 3,
                    "material" : 0
                },
                {
                    "attributes" : {
                        "POSITION" : 4,
                        "NORMAL" : 5,
                        "TEXCOORD_0" : 6
                    },
                    "indices" : 7,
                    "material" : 1
                },
                {
                    "attributes" : {
                        "POSITION" : 8,
                        "NORMAL" : 9,
                        "TEXCOORD_0" : 10
                    },
                    "indices" : 11,
                    "material" : 2
                },
                {
                    "attributes" : {
                        "POSITION" : 12,
                        "NORMAL" : 13,
                        "TEXCOORD_0" : 14
                    },
                    "indices" : 15,
                    "material" : 3
                }
            ]
        }
    ],
    "accessors" : [
        {
            "bufferView" : 0,
            "componentType" : 5126,
            "count" : 444,
            "max" : [
                0.6672459840774536,
                3.9287242889404297,
                2.0794150829315186
            ],
            "min" : [
                -2.501293182373047,
                -0.21414613723754883,
                -1.1035819053649902
            ],
            "type" : "VEC3"
        },
        {
            "bufferView" : 1,
            "componentType" : 5126,
            "count" : 444,
            "type" : "VEC3"
        },
        {
            "bufferView" : 2,
            "componentType" : 5126,
            "count" : 444,
            "type" : "VEC2"
        },
        {
            "bufferView" : 3,
            "componentType" : 5123,
            "count" : 468,
            "type" : "SCALAR"
        },
        {
            "bufferView" : 4,
            "componentType" : 5126,
            "count" : 72,
            "max" : [
                -0.7217910885810852,
                0.9175997376441956,
                1.1285791397094727
            ],
            "min" : [
                -1.273500919342041,
                -0.37581968307495117,
                0.07224059104919434
            ],
            "type" : "VEC3"
        },
        {
            "bufferView" : 5,
            "componentType" : 5126,
            "count" : 72,
            "type" : "VEC3"
        },
        {
            "bufferView" : 6,
            "componentType" : 5126,
            "count" : 72,
            "type" : "VEC2"
        },
        {
            "bufferView" : 7,
            "componentType" : 5123,
            "count" : 72,
            "type" : "SCALAR"
        },
        {
            "bufferView" : 8,
            "componentType" : 5126,
            "count" : 36,
            "max" : [
                -0.12368923425674438,
                1.7176004648208618,
                2.2350573539733887
            ],
            "min" : [
                -1.2517445087432861,
                0.8333987593650818,
                1.58390212059021
            ],
            "type" : "VEC3"
        },
        {
            "bufferView" : 9,
            "componentType" : 5126,
            "count" : 36,
            "type" : "VEC3"
        },
        {
            "bufferView" : 10,
            "componentType" : 5126,
            "count" : 36,
            "type" : "VEC2"
        },
        {
            "bufferView" : 11,
            "componentType" : 5123,
            "count" : 36,
            "type" : "SCALAR"
        },
        {
            "bufferView" : 12,
            "componentType" : 5126,
            "count" : 336,
            "max" : [
                0.3098636865615845,
                3.3938214778900146,
                0.9375965595245361
            ],
            "min" : [
                -1.088294267654419,
                1.994407057762146,
                -0.4570049047470093
            ],
            "type" : "VEC3"
        },
        {
            "bufferView" : 13,
            "componentType" : 5126,
            "count" : 336,
            "type" : "VEC3"
        },
        {
            "bufferView" : 14,
            "componentType" : 5126,
            "count" : 336,
            "type" : "VEC2"
        },
        {
            "bufferView" : 15,
            "componentType" : 5123,
            "count" : 336,
            "type" : "SCALAR"
        }
    ],
    "bufferViews" : [
        {
            "buffer" : 0,
            "byteLength" : 5328,
            "byteOffset" : 0
        },
        {
            "buffer" : 0,
            "byteLength" : 5328,
            "byteOffset" : 5328
        },
        {
            "buffer" : 0,
            "byteLength" : 3552,
            "byteOffset" : 10656
        },
        {
            "buffer" : 0,
            "byteLength" : 936,
            "byteOffset" : 14208
        },
        {
            "buffer" : 0,
            "byteLength" : 864,
            "byteOffset" : 15144
        },
        {
            "buffer" : 0,
            "byteLength" : 864,
            "byteOffset" : 16008
        },
        {
            "buffer" : 0,
            "byteLength" : 576,
            "byteOffset" : 16872
        },
        {
            "buffer" : 0,
            "byteLength" : 144,
            "byteOffset" : 17448
        },
        {
            "buffer" : 0,
            "byteLength" : 432,
            "byteOffset" : 17592
        },
        {
            "buffer" : 0,
            "byteLength" : 432,
            "byteOffset" : 18024
        },
        {
            "buffer" : 0,
            "byteLength" : 288,
            "byteOffset" : 18456
        },
        {
            "buffer" : 0,
            "byteLength" : 72,
            "byteOffset" : 18744
        },
        {
            "buffer" : 0,
            "byteLength" : 4032,
            "byteOffset" : 18816
        },
        {
            "buffer" : 0,
            "byteLength" : 4032,
            "byteOffset" : 22848
        },
        {
            "buffer" : 0,
            "byteLength" : 2688,
            "byteOffset" : 26880
        },
        {
            "buffer" : 0,
            "byteLength" : 672,
            "byteOffset" : 29568
        }
    ],
    "buffers" : [
        {
            "byteLength" : 30240,
            "uri" : "data:application/octet-stream;base64,"
        }
    ]
}
